<svg version="1.1" xmlns="http://www.w3.org/2000/svg" xmlns:xlink="http://www.w3.org/1999/xlink" width="145.48827" height="144.2567" viewBox="0,0,145.48827,144.2567"><defs><linearGradient x1="493.00915" y1="978.12278" x2="587.3117" y2="978.12278" gradientUnits="userSpaceOnUse" id="color-1"><stop offset="0" stop-color="#ff0000"/><stop offset="1" stop-color="#0041ff"/></linearGradient><linearGradient x1="540.16042" y1="950.05654" x2="540.16042" y2="1006.18902" gradientUnits="userSpaceOnUse" id="color-2"><stop offset="0" stop-color="#ff0000"/><stop offset="1" stop-color="#0041ff"/></linearGradient><linearGradient x1="540.00004" y1="895.68634" x2="540.00004" y2="948.13199" gradientUnits="userSpaceOnUse" id="color-3"><stop offset="0" stop-color="#ff0000"/><stop offset="1" stop-color="#0041ff"/></linearGradient><linearGradient x1="490.28273" y1="947.16972" x2="589.71737" y2="947.16972" gradientUnits="userSpaceOnUse" id="color-4"><stop offset="0" stop-color="#ff0000"/><stop offset="1" stop-color="#0041ff"/></linearGradient><linearGradient x1="540.00006" y1="935.30171" x2="540.00006" y2="959.03773" gradientUnits="userSpaceOnUse" id="color-5"><stop offset="0" stop-color="#ff0000"/><stop offset="1" stop-color="#0041ff"/></linearGradient><linearGradient x1="471.25587" y1="951.88462" x2="608.74413" y2="951.88462" gradientUnits="userSpaceOnUse" id="color-6"><stop offset="0" stop-color="#ff1200"/><stop offset="1" stop-color="#0066ff"/></linearGradient></defs><g transform="translate(-467.25587,-879.75628)"><g stroke-miterlimit="10"><path d="" fill="#6e5746" fill-rule="evenodd" stroke="none" stroke-width="1" stroke-linecap="butt"/><path d="" fill="#1b6913" fill-rule="evenodd" stroke="none" stroke-width="1" stroke-linecap="butt"/><path d="" fill="#040504" fill-rule="evenodd" stroke="none" stroke-width="1" stroke-linecap="butt"/><path d="" fill="#4c734c" fill-rule="evenodd" stroke="none" stroke-width="1" stroke-linecap="butt"/><path d="" fill="#f34f04" fill-rule="evenodd" stroke="none" stroke-width="1" stroke-linecap="butt"/><path d="" fill="#3f423a" fill-rule="evenodd" stroke="none" stroke-width="1" stroke-linecap="butt"/><path d="" fill="#173c14" fill-rule="evenodd" stroke="none" stroke-width="1" stroke-linecap="butt"/><path d="" fill="#2c2c2c" fill-rule="evenodd" stroke="none" stroke-width="1" stroke-linecap="butt"/><path d="" fill="#8c8404" fill-rule="evenodd" stroke="none" stroke-width="1" stroke-linecap="butt"/><path d="M501.02807,997.20781c0,0 7.05665,-3.84668 7.05665,-10.58498c0,-10.36338 -15.07558,-36.56629 -15.07558,-36.56629h94.30256c0,0 -14.11331,26.84443 -14.11331,37.20781c0,6.7383 5.45287,11.2265 5.45287,11.2265c0,0 -23.7006,7.69817 -39.77387,7.69817c-15.32526,0 -37.84933,-8.9812 -37.84933,-8.9812z" fill="url(#color-1)" fill-rule="nonzero" stroke="url(#color-2)" stroke-width="3.5" stroke-linecap="butt"/><path d="M491.40536,948.13199l-0.96227,-3.84908c0,0 29.85333,-48.43556 46.50511,-48.59619c16.59987,-0.16012 52.6088,50.84149 52.6088,50.84149" fill="none" fill-rule="nonzero" stroke="url(#color-3)" stroke-width="3.5" stroke-linecap="round"/><path d="M589.71737,947.16972c0,6.55452 -22.25921,11.86801 -49.71733,11.86801c-27.45812,0 -49.71733,-5.31349 -49.71733,-11.86801c0,-6.55452 22.25921,-11.86801 49.71733,-11.86801c27.45812,0 49.71733,5.31349 49.71733,11.86801z" fill="url(#color-4)" fill-rule="nonzero" stroke="url(#color-5)" stroke-width="3.5" stroke-linecap="butt"/><path d="M471.25587,1020.01297v-136.2567h137.48827v136.2567z" fill="none" fill-rule="nonzero" stroke="url(#color-6)" stroke-width="8" stroke-linecap="butt"/></g></g></svg>